<svg width="24" height="24" viewBox="0 0 24 24" fill="none" xmlns="http://www.w3.org/2000/svg">
<path d="M4.2 21.51C6.915 19.635 8.73 16.77 10.065 13.26C11.415 9.765 12.855 6.765 12.225 3.315C12.135 2.775 11.37 2.22 10.98 2.265C9.45 2.355 9.555 4.08 9.705 5.115C10.065 7.68 12.045 10.665 13.965 13.455C15.87 16.26 17.445 16.695 19.635 16.845C20.385 16.89 21.51 16.635 21.69 15.975C22.845 11.775 8.16 15.165 3.27 19.095C2.67 19.59 1.98 20.595 2.37 21.285C2.67 21.825 3.675 21.885 4.215 21.51H4.2Z" stroke="#FC0202" stroke-width="1.5" stroke-linecap="round" stroke-linejoin="round"/>
</svg>
