<svg width="24" height="24" viewBox="0 0 24 24" fill="none" xmlns="http://www.w3.org/2000/svg">
<path d="M15 22H10.727C7.467 22 5.835 22 4.703 21.202C4.38085 20.9761 4.0929 20.705 3.848 20.397C3 19.331 3 17.797 3 14.727V12.182C3 9.219 3 7.737 3.469 6.554C4.223 4.651 5.817 3.151 7.839 2.441C9.095 2 10.668 2 13.818 2C15.616 2 16.516 2 17.234 2.252C18.389 2.658 19.3 3.515 19.731 4.602C20 5.278 20 6.125 20 7.818V10" stroke="black" stroke-width="1.5" stroke-linecap="round" stroke-linejoin="round"/>
<path d="M3 12C3 11.116 3.35115 10.2683 3.97621 9.64321C4.60127 9.01815 5.44903 8.667 6.333 8.667C6.999 8.667 7.784 8.783 8.431 8.61C8.71371 8.53392 8.97145 8.38485 9.17838 8.17774C9.38531 7.97064 9.53416 7.71277 9.61 7.43C9.783 6.783 9.667 5.998 9.667 5.332C9.66726 4.44821 10.0185 3.6007 10.6436 2.97586C11.2686 2.35102 12.1162 2 13 2M7 18V13.5C7 13.3674 7.05268 13.2402 7.14645 13.1464C7.24021 13.0527 7.36739 13 7.5 13H8.698C9.199 13 9.713 13.234 9.863 13.712C9.963 14.034 9.959 14.336 9.859 14.678C9.703 15.208 9.155 15.5 8.602 15.5H7.5M12 18L12.1 13.37C12.0998 13.3487 12.1065 13.3278 12.119 13.3105C12.1316 13.2933 12.1493 13.2804 12.1696 13.274C12.19 13.2675 12.2118 13.2677 12.2321 13.2745C12.2523 13.2814 12.2698 13.2945 12.282 13.312L15.225 17.712C15.2372 17.7295 15.2547 17.7426 15.2749 17.7495C15.2952 17.7563 15.317 17.7565 15.3374 17.75C15.3577 17.7436 15.3754 17.7307 15.388 17.7135C15.4005 17.6962 15.4072 17.6753 15.407 17.654L15.5 13M21 13.873C20.88 13.155 20.747 13 20 13H18.5C17.948 13 17.699 13.448 17.699 14V17C17.699 17.552 17.948 18 18.5 18H20.2C20.4122 18 20.6157 17.9157 20.7657 17.7657C20.9157 17.6157 21 17.4122 21 17.2V16.4C21 16.2939 20.9579 16.1922 20.8828 16.1172C20.8078 16.0421 20.7061 16 20.6 16H19.85" stroke="black" stroke-width="1.5" stroke-linecap="round" stroke-linejoin="round"/>
</svg>
